<svg width="24" height="24" viewBox="0 0 24 24" fill="none" xmlns="http://www.w3.org/2000/svg">
<g clip-path="url(#clip0_35_255)">
<path d="M6.93945 11.0964H8.95311C9.14731 11.0964 9.30467 10.939 9.30467 10.7449C9.30467 10.5507 9.14731 10.3933 8.95311 10.3933H6.93945C6.74525 10.3933 6.58789 10.5507 6.58789 10.7449C6.58789 10.939 6.74525 11.0964 6.93945 11.0964Z" fill="url(#paint0_linear_35_255)"/>
<path d="M6.93945 12.8H15.1177C15.3119 12.8 15.4693 12.6426 15.4693 12.4485C15.4693 12.2543 15.3119 12.0969 15.1177 12.0969H6.93945C6.74525 12.0969 6.58789 12.2543 6.58789 12.4485C6.58789 12.6426 6.74525 12.8 6.93945 12.8Z" fill="url(#paint1_linear_35_255)"/>
<path d="M15.1177 13.8008H12.9375C12.7433 13.8008 12.5859 13.9582 12.5859 14.1523C12.5859 14.3465 12.7433 14.5039 12.9375 14.5039H15.1177C15.312 14.5039 15.4693 14.3465 15.4693 14.1523C15.4693 13.9582 15.3119 13.8008 15.1177 13.8008Z" fill="url(#paint2_linear_35_255)"/>
<path d="M23.0098 2.36033L18.4592 0.0860977C18.2296 -0.0286992 17.9554 -0.0286992 17.7258 0.0860977L13.1752 2.36033C13.1751 2.36033 13.1751 2.36033 13.1751 2.36033C12.8954 2.50016 12.7215 2.78132 12.7215 3.09411V3.74835H7.78125C7.58704 3.74835 7.42968 3.90575 7.42968 4.09991C7.42968 4.29407 7.58704 4.45147 7.78125 4.45147H12.7216V5.52064C12.7216 6.03346 12.76 6.52096 12.837 6.98558H6.93947C6.74526 6.98558 6.5879 7.14299 6.5879 7.33714C6.5879 7.5313 6.74526 7.68871 6.93947 7.68871H12.9874C13.0796 8.03558 13.1961 8.36872 13.3369 8.68939H6.93947C6.74526 8.68939 6.5879 8.8468 6.5879 9.04096C6.5879 9.23511 6.74526 9.39252 6.93947 9.39252H13.6963C13.8198 9.60238 13.955 9.80652 14.1024 10.0053C14.1994 10.1361 14.302 10.2653 14.4105 10.3932H10.3594C10.1652 10.3932 10.0078 10.5506 10.0078 10.7448C10.0078 10.9389 10.1652 11.0963 10.3594 11.0963H15.0812C15.744 11.7201 16.5817 12.3342 17.6635 12.9962C17.7958 13.0771 17.9441 13.1176 18.0924 13.1176C18.2408 13.1176 18.3891 13.0771 18.5214 12.9962C18.5574 12.9742 18.5926 12.9523 18.628 12.9305V21.468H9.42975V20.8125C9.42975 20.6183 9.27239 20.4609 9.07818 20.4609C8.88398 20.4609 8.72662 20.6183 8.72662 20.8125V23.1797C8.72662 23.2443 8.67407 23.2969 8.60943 23.2969H1.35693C1.29229 23.2969 1.23975 23.2443 1.23975 23.1797V18.1159C1.23975 18.0513 1.29229 17.9987 1.35693 17.9987H8.60943C8.67407 17.9987 8.72662 18.0513 8.72662 18.1159V19.1719C8.72662 19.366 8.88398 19.5234 9.07818 19.5234C9.27239 19.5234 9.42975 19.366 9.42975 19.1719V18.1159C9.42975 18.0453 9.41981 17.977 9.40293 17.9116H15.1177C15.3119 17.9116 15.4693 17.7542 15.4693 17.56C15.4693 17.3659 15.3119 17.2085 15.1177 17.2085H8.30006V16.2078H15.1177C15.3119 16.2078 15.4693 16.0504 15.4693 15.8562C15.4693 15.6621 15.3119 15.5046 15.1177 15.5046H8.28534C8.25286 15.1524 8.16534 14.8159 8.031 14.504H11.6719C11.8661 14.504 12.0234 14.3466 12.0234 14.1524C12.0234 13.9582 11.8661 13.8008 11.6719 13.8008H7.61873C7.01212 13.0076 6.05662 12.4946 4.98318 12.4946C4.42186 12.4946 3.89296 12.6352 3.42904 12.8824V4.45147H6.14062C6.33482 4.45147 6.49218 4.29407 6.49218 4.09991C6.49218 3.90575 6.33482 3.74835 6.14062 3.74835H3.31186C2.98875 3.74835 2.72592 4.01118 2.72592 4.33428V13.3842C2.07468 13.9902 1.66631 14.8538 1.66631 15.8114V17.2956H1.35693C0.904637 17.2956 0.536621 17.6636 0.536621 18.1159V23.1797C0.536621 23.632 0.904637 24 1.35693 24H8.60943C9.06173 24 9.42975 23.632 9.42975 23.1797V22.1711H18.7453C19.0684 22.1711 19.3312 21.9082 19.3312 21.5851V12.4788C20.5826 11.6414 21.449 10.8597 22.0825 10.0053C23.0116 8.7523 23.4633 7.28535 23.4633 5.52069V3.09411C23.4634 2.78136 23.2896 2.50021 23.0098 2.36033ZM6.19073 17.2956H3.77568V15.8115C3.77568 15.1456 4.31742 14.6039 4.98323 14.6039C5.64904 14.6039 6.19078 15.1456 6.19078 15.8115V17.2956H6.19073ZM2.36943 15.8115C2.36943 14.3702 3.54201 13.1977 4.98323 13.1977C6.42445 13.1977 7.59698 14.3702 7.59698 15.8115V17.2956H6.8939V15.8115C6.8939 14.7579 6.03679 13.9008 4.98323 13.9008C3.92967 13.9008 3.07256 14.7579 3.07256 15.8115V17.2956H2.36943V15.8115ZM22.7602 5.52069C22.7602 8.89925 20.9979 10.6564 18.1545 12.3964C18.1167 12.4195 18.0681 12.4195 18.0305 12.3964C15.187 10.6564 13.4247 8.89925 13.4247 5.52069V3.09411C13.4247 3.04939 13.4495 3.00922 13.4895 2.98925L18.0401 0.714973C18.0728 0.698566 18.112 0.698566 18.1448 0.714973L22.6954 2.98921C22.7354 3.00918 22.7602 3.04935 22.7602 3.09407V5.52069H22.7602Z" fill="url(#paint3_linear_35_255)"/>
<path d="M18.0713 2.4436C16.1096 2.4436 14.5137 4.03956 14.5137 6.00123C14.5137 7.9629 16.1096 9.55885 18.0713 9.55885C19.5721 9.55885 20.919 8.60917 21.4228 7.19565C21.488 7.01279 21.3925 6.81165 21.2097 6.74645C21.0268 6.68124 20.8257 6.77668 20.7605 6.95954C20.3562 8.09368 19.2755 8.85568 18.0713 8.85568C16.4973 8.85568 15.2168 7.57515 15.2168 6.00118C15.2168 4.42721 16.4973 3.14668 18.0713 3.14668C19.4571 3.14668 20.6387 4.13579 20.8807 5.49849C20.9147 5.68965 21.0973 5.81729 21.2884 5.78317C21.4795 5.74923 21.607 5.5667 21.573 5.37554C21.2713 3.67665 19.7986 2.4436 18.0713 2.4436Z" fill="url(#paint4_linear_35_255)"/>
<path d="M19.2908 5.03922L17.9056 6.42442L17.1002 5.61892C16.9629 5.48162 16.7403 5.48158 16.603 5.61892C16.4657 5.75622 16.4657 5.97883 16.603 6.11608L17.657 7.17015C17.723 7.23611 17.8123 7.27314 17.9056 7.27314C17.9989 7.27314 18.0883 7.23611 18.1543 7.17015L19.788 5.53637C19.9253 5.39908 19.9253 5.17647 19.788 5.03922C19.6507 4.90197 19.4282 4.90197 19.2908 5.03922Z" fill="url(#paint5_linear_35_255)"/>
</g>
<defs>
<linearGradient id="paint0_linear_35_255" x1="6.40017" y1="10.5766" x2="7.77901" y2="12.4459" gradientUnits="userSpaceOnUse">
<stop stop-color="#3286B7" stop-opacity="0.7"/>
<stop offset="1" stop-color="#44C2AD"/>
</linearGradient>
<linearGradient id="paint1_linear_35_255" x1="5.97421" y1="12.2803" x2="6.59393" y2="15.0268" gradientUnits="userSpaceOnUse">
<stop stop-color="#3286B7" stop-opacity="0.7"/>
<stop offset="1" stop-color="#44C2AD"/>
</linearGradient>
<linearGradient id="paint2_linear_35_255" x1="12.3867" y1="13.9841" x2="13.7394" y2="15.9304" gradientUnits="userSpaceOnUse">
<stop stop-color="#3286B7" stop-opacity="0.7"/>
<stop offset="1" stop-color="#44C2AD"/>
</linearGradient>
<linearGradient id="paint3_linear_35_255" x1="-1.04755" y1="6.25781" x2="28.6393" y2="16.2081" gradientUnits="userSpaceOnUse">
<stop stop-color="#3286B7" stop-opacity="0.7"/>
<stop offset="1" stop-color="#44C2AD"/>
</linearGradient>
<linearGradient id="paint4_linear_35_255" x1="14.0255" y1="4.29885" x2="23.0999" y2="7.46018" gradientUnits="userSpaceOnUse">
<stop stop-color="#3286B7" stop-opacity="0.7"/>
<stop offset="1" stop-color="#44C2AD"/>
</linearGradient>
<linearGradient id="paint5_linear_35_255" x1="16.2657" y1="5.5456" x2="20.1444" y2="7.5204" gradientUnits="userSpaceOnUse">
<stop stop-color="#3286B7" stop-opacity="0.7"/>
<stop offset="1" stop-color="#44C2AD"/>
</linearGradient>
<clipPath id="clip0_35_255">
<rect width="24" height="24" fill="white"/>
</clipPath>
</defs>
</svg>
