<svg width="22" height="20" viewBox="0 0 22 20" fill="none" xmlns="http://www.w3.org/2000/svg">
<path d="M10.9989 13.6003C12.9772 13.6003 14.5809 12.0736 14.5809 10.1903C14.5809 8.30698 12.9772 6.78027 10.9989 6.78027C9.02068 6.78027 7.41699 8.30698 7.41699 10.1903C7.41699 12.0736 9.02068 13.6003 10.9989 13.6003Z" stroke="#888888" stroke-width="1.2" stroke-miterlimit="10" stroke-linecap="round" stroke-linejoin="round"/>
<path d="M11 15.7796C16.5228 15.7796 21 13.2769 21 10.1896C21 7.10234 16.5228 4.59961 11 4.59961C5.47715 4.59961 1 7.10234 1 10.1896C1 13.2769 5.47715 15.7796 11 15.7796Z" stroke="#888888" stroke-width="1.2" stroke-miterlimit="10" stroke-linecap="round" stroke-linejoin="round"/>
<path d="M2.4707 2L19.2774 18" stroke="white" stroke-width="2.5" stroke-linecap="round"/>
<path d="M2.4707 2L19.2774 18" stroke="#888888" stroke-width="1.2" stroke-linecap="round"/>
</svg>
