<svg width="24" height="24" viewBox="0 0 24 24" fill="none" xmlns="http://www.w3.org/2000/svg">
<g clip-path="url(#clip0_35_241)">
<path d="M20.8934 17.394C21.2729 16.9564 21.4818 16.3959 21.4818 15.8157C21.4818 14.4856 20.3999 13.4036 19.07 13.4036C18.3697 13.4036 17.7052 13.7074 17.2465 14.2371C16.8671 14.675 16.6582 15.2356 16.6582 15.8157C16.6582 17.1455 17.7401 18.2275 19.07 18.2275C19.7704 18.2274 20.435 17.9236 20.8934 17.394ZM17.3619 15.8157C17.3619 15.4048 17.5098 15.0078 17.7784 14.6978C17.7784 14.6978 17.7785 14.6977 17.7785 14.6977C18.1034 14.3225 18.5741 14.1073 19.07 14.1073C20.0119 14.1073 20.7782 14.8737 20.7782 15.8157C20.7782 16.2266 20.6303 16.6235 20.3616 16.9334C20.0367 17.3087 19.566 17.5239 19.07 17.5239C18.1282 17.5238 17.3619 16.7575 17.3619 15.8157Z" fill="url(#paint0_linear_35_241)"/>
<path d="M22.3201 12.591C21.4788 11.743 20.3638 11.2606 19.1805 11.2328C17.934 11.2034 16.7577 11.6662 15.8673 12.5359C14.9766 13.4059 14.4861 14.5706 14.4861 15.8155C14.4861 16.411 14.5996 16.9918 14.8234 17.5417C14.8966 17.7216 15.1019 17.8081 15.2819 17.7349C15.4618 17.6616 15.5484 17.4564 15.4751 17.2764C15.2857 16.8112 15.1898 16.3197 15.1898 15.8155C15.1898 14.7617 15.605 13.7758 16.359 13.0393C17.1127 12.3032 18.1092 11.9109 19.1639 11.9363C20.1646 11.9598 21.1081 12.3684 21.8205 13.0866C22.533 13.8047 22.934 14.7516 22.9499 15.7525C22.9636 16.616 22.6995 17.4373 22.1838 18.1311L20.2706 20.7692C19.9258 21.2446 19.6881 21.7767 19.5641 22.3505L19.4209 23.0132C19.3855 23.1773 19.2379 23.2962 19.0701 23.2962C18.9023 23.2962 18.7548 23.1772 18.7194 23.0132L18.5761 22.3505C18.4521 21.7766 18.2144 21.2446 17.8696 20.7691L16.2166 18.4899C16.1026 18.3326 15.8826 18.2975 15.7252 18.4116C15.568 18.5257 15.5329 18.7456 15.647 18.903L17.3 21.1823C17.5871 21.5782 17.7851 22.0212 17.8883 22.4992L18.0315 23.1618C18.1364 23.6475 18.5732 23.9999 19.07 23.9999C19.5669 23.9999 20.0036 23.6474 20.1086 23.1618L20.2518 22.4992C20.3551 22.0213 20.553 21.5782 20.8401 21.1823L22.7508 18.5475C23.3575 17.7315 23.6695 16.7611 23.6534 15.7413C23.6347 14.5576 23.1612 13.4388 22.3201 12.591Z" fill="url(#paint1_linear_35_241)"/>
<path d="M4.08615 5.76257C4.66721 5.76257 5.21874 5.51043 5.59904 5.07112C5.9139 4.70793 6.08734 4.24284 6.08734 3.76138C6.08734 3.46926 6.02532 3.18703 5.90298 2.92246C5.82141 2.74607 5.6123 2.6692 5.43601 2.75076C5.25962 2.83228 5.18279 3.04138 5.2643 3.21773C5.34348 3.38906 5.3837 3.57201 5.3837 3.76138C5.3837 4.07348 5.27134 4.37493 5.0672 4.61034C4.82045 4.89538 4.46288 5.05893 4.08615 5.05893C3.3707 5.05893 2.78865 4.47688 2.78865 3.76143C2.78865 3.44938 2.90101 3.14779 3.10515 2.91224C3.3519 2.6272 3.70946 2.46365 4.0862 2.46365C4.15266 2.46365 4.21937 2.46871 4.28452 2.47865C4.47662 2.50818 4.6561 2.37618 4.68549 2.18409C4.71488 1.99204 4.58302 1.81246 4.39093 1.78312C4.29066 1.76779 4.18815 1.76001 4.08615 1.76001C3.50509 1.76001 2.95355 2.01215 2.57316 2.4516C2.25835 2.81498 2.08496 3.28017 2.08496 3.76143C2.08501 4.86482 2.98271 5.76257 4.08615 5.76257Z" fill="url(#paint2_linear_35_241)"/>
<path d="M2.61211 8.09958C2.83627 8.40863 2.99077 8.75448 3.07139 9.1276L3.18605 9.65823C3.27698 10.0791 3.6555 10.3846 4.08614 10.3846C4.51678 10.3846 4.8953 10.0791 4.98623 9.65823L5.10089 9.12765C5.18152 8.75448 5.33606 8.40863 5.56017 8.09963L7.08956 5.99073C7.58456 5.32491 7.83923 4.5331 7.82606 3.70098C7.81078 2.73507 7.42444 1.82209 6.73814 1.1303C6.0517 0.438429 5.14191 0.0448665 4.17619 0.0220853C3.15919 -0.00205537 2.19937 0.375804 1.47277 1.08544C0.746016 1.79527 0.345703 2.74562 0.345703 3.7614C0.345703 4.5713 0.600563 5.34221 1.08028 5.9874L2.61211 8.09958ZM1.96444 1.58879C2.53669 1.02985 3.28734 0.724648 4.08563 0.724648C4.11014 0.724648 4.13494 0.724929 4.15955 0.725538C4.94255 0.74396 5.68087 1.06369 6.2385 1.62582C6.79612 2.18794 7.11005 2.9288 7.12242 3.71209C7.13311 4.38784 6.92644 5.03059 6.52238 5.57424L4.99055 7.68643C4.70883 8.07493 4.51453 8.50979 4.41314 8.97891L4.29848 9.50949C4.27702 9.60882 4.18772 9.68087 4.08619 9.68087C3.98466 9.68087 3.89531 9.60882 3.87389 9.50954L3.75923 8.97896C3.65784 8.50988 3.46359 8.07502 3.18178 7.68648L1.64752 5.57091C1.2563 5.04465 1.04948 4.41891 1.04948 3.7614C1.04934 2.93673 1.37437 2.16512 1.96444 1.58879Z" fill="url(#paint3_linear_35_241)"/>
<path d="M20.2203 4.02946C20.0893 4.1729 20.0993 4.39546 20.2427 4.52653C20.3102 4.58821 20.3952 4.61859 20.48 4.61859C20.5753 4.61859 20.6704 4.58001 20.7398 4.50407L20.7459 4.49751C20.7544 4.48837 20.7628 4.47918 20.7705 4.47018C21.0372 4.16263 21.1841 3.76874 21.1841 3.36107C21.1841 2.42657 20.4238 1.66626 19.4894 1.66626C19.0014 1.66626 18.5368 1.87701 18.2149 2.24451C18.0868 2.39067 18.1015 2.61295 18.2477 2.74096C18.3938 2.86903 18.6161 2.85435 18.7442 2.70815C18.9325 2.49318 19.2042 2.36985 19.4895 2.36985C20.0359 2.36985 20.4805 2.81451 20.4805 3.36103C20.4805 3.59938 20.3947 3.82954 20.2386 4.00968L20.2203 4.02946Z" fill="url(#paint4_linear_35_241)"/>
<path d="M16.8389 1.89363C16.9967 2.00703 17.2166 1.97093 17.3299 1.81315C17.8435 1.09817 18.6749 0.682853 19.5536 0.704369C20.2388 0.720494 20.8848 1.00034 21.3729 1.49224C21.8609 1.9842 22.1356 2.63257 22.1465 3.31793C22.1558 3.90926 21.975 4.47181 21.6211 4.94801L21.2573 5.44953C21.1433 5.60679 21.1783 5.82678 21.3356 5.94087C21.398 5.98615 21.4702 6.0079 21.5418 6.0079C21.6507 6.0079 21.7581 5.95746 21.8269 5.86259L22.1881 5.3644C22.6329 4.76604 22.8618 4.05453 22.85 3.30678C22.8363 2.43874 22.489 1.61829 21.8724 0.996682C21.2556 0.375025 20.438 0.0213534 19.5701 0.000915924C18.4587 -0.0249591 17.4077 0.498728 16.7584 1.40267C16.7274 1.44593 16.6351 1.66634 16.783 1.84348C16.7995 1.86176 16.8181 1.87868 16.8389 1.89363Z" fill="url(#paint5_linear_35_241)"/>
<path d="M16.2637 21.0687C16.2642 20.9712 16.2248 20.874 16.1464 20.804C16.0013 20.6747 15.7789 20.6875 15.6496 20.8325C15.4262 21.0831 15.1932 21.3128 14.9565 21.5165C14.46 21.6882 13.9523 21.819 13.4352 21.9094C13.8275 21.0651 14.1641 19.9043 14.4212 18.4987C14.4562 18.3076 14.3296 18.1243 14.1385 18.0893C13.9476 18.0544 13.7641 18.1809 13.7291 18.3721C13.4393 19.9563 13.0364 21.2409 12.587 22.0203C12.2934 22.0459 11.9972 22.0594 11.6986 22.0594C11.3989 22.0594 11.1026 22.0453 10.8096 22.0193C10.2913 21.1226 9.86323 19.6227 9.57185 17.7879C10.2682 17.8445 10.9795 17.8737 11.6986 17.8737C12.3647 17.8737 13.0371 17.8485 13.6971 17.7987C13.8909 17.7841 14.0361 17.6152 14.0216 17.4215C14.0069 17.2277 13.8377 17.0828 13.6443 17.0971C13.0018 17.1455 12.3472 17.1701 11.6986 17.1701C10.9422 17.1701 10.1957 17.1368 9.46756 17.0733C9.27767 15.652 9.16624 14.0652 9.15228 12.4222H14.8577C15.052 12.4222 15.2096 12.2647 15.2096 12.0703C15.2096 11.9076 15.0989 11.771 14.9488 11.7309C14.9361 10.1063 14.8322 8.54862 14.6518 7.14129C15.8261 7.27897 16.9423 7.49764 17.9621 7.78812C18.1786 8.56836 18.3367 9.38722 18.4291 10.2221C18.449 10.4021 18.6014 10.5352 18.7784 10.5352C18.7913 10.5352 18.8044 10.5345 18.8175 10.5331C19.0107 10.5117 19.1499 10.3378 19.1285 10.1447C19.049 9.42626 18.9226 8.71859 18.7539 8.03469C19.71 8.35944 20.5608 8.75211 21.2695 9.20384C21.4462 9.79484 21.5689 10.4046 21.6334 11.0264C21.6522 11.2074 21.805 11.342 21.983 11.342C21.9951 11.342 22.0074 11.3413 22.0197 11.34C22.213 11.32 22.3534 11.147 22.3334 10.9538C22.0619 8.33881 20.8354 5.92175 18.8797 4.14795C16.9101 2.36154 14.3599 1.37769 11.6987 1.37769C10.613 1.37769 9.54167 1.53997 8.51449 1.85998C8.32896 1.91778 8.22542 2.11503 8.28321 2.30056C8.34101 2.48604 8.53812 2.58945 8.72379 2.53184C9.12982 2.40533 9.5434 2.30553 9.96223 2.23212C9.49573 3.23731 9.11093 4.685 8.84576 6.42167C8.44503 6.46559 8.04837 6.51776 7.65809 6.58029C7.46623 6.61104 7.33564 6.79151 7.36639 6.98337C7.39714 7.17528 7.5776 7.30564 7.76946 7.27508C8.0907 7.22356 8.41606 7.1787 8.74479 7.14022C8.68854 7.57934 8.63956 8.03412 8.59854 8.50254C8.58157 8.69609 8.72473 8.86681 8.91828 8.88373C8.92873 8.88467 8.93909 8.88509 8.9494 8.88509C9.12982 8.88509 9.28343 8.74709 9.29946 8.56395C9.34465 8.04851 9.40029 7.54869 9.46489 7.06775C10.1973 7.00395 10.9437 6.97062 11.6987 6.97062C12.4551 6.97062 13.2016 7.0039 13.9297 7.06742C14.1196 8.48872 14.231 10.0755 14.245 11.7185H9.15279C9.15743 11.1581 9.17253 10.5982 9.1991 10.0496C9.20848 9.85545 9.05881 9.6905 8.86474 9.68112C8.66984 9.67226 8.50568 9.82147 8.49631 10.0155C8.46921 10.5754 8.45384 11.1467 8.4492 11.7185H4.87081C4.8731 11.6163 4.87624 11.5116 4.88051 11.4023C4.8881 11.2081 4.73689 11.0446 4.54273 11.0369C4.34946 11.0286 4.18498 11.1805 4.17739 11.3747C4.17274 11.4935 4.16928 11.6075 4.16688 11.7184H1.71612C1.74851 10.7874 1.90896 9.87045 2.19513 8.98775C2.25504 8.80292 2.15374 8.6045 1.96892 8.54459C1.78404 8.48468 1.58567 8.58598 1.52576 8.77081C1.18095 9.83473 1.0061 10.9448 1.0061 12.0702C1.0061 14.9263 2.11831 17.6115 4.13787 19.6311C6.15748 21.6507 8.84257 22.7629 11.6987 22.7629C13.3121 22.7629 14.863 22.4121 16.3084 21.7205C16.4837 21.6366 16.5578 21.4265 16.4739 21.2513C16.4303 21.1605 16.3527 21.0972 16.2637 21.0687ZM14.5511 6.42261C14.2886 4.70173 13.9066 3.24795 13.4358 2.23353C13.9548 2.32479 14.4642 2.45684 14.9597 2.62779C15.8373 3.38398 16.6137 4.45217 17.2071 5.72286C17.3961 6.12753 17.5665 6.55348 17.7175 6.99551C16.7279 6.73878 15.6626 6.54528 14.5511 6.42261ZM20.9021 8.18211C20.1987 7.81503 19.4008 7.49403 18.5306 7.22539C18.338 6.59487 18.1088 5.99056 17.8447 5.42511C17.4913 4.66859 17.0749 3.97803 16.6113 3.37226C17.2508 3.73395 17.8536 4.16745 18.4069 4.66934C19.4953 5.65648 20.3418 6.85672 20.9021 8.18211ZM11.6986 6.26712C10.9804 6.26712 10.2693 6.29609 9.56998 6.35239C9.86567 4.50444 10.3011 3.00312 10.8104 2.12084C11.1049 2.09492 11.4011 2.08147 11.6986 2.08147C11.9967 2.08147 12.2931 2.09501 12.5875 2.12117C13.1059 3.01794 13.534 4.51803 13.8254 6.35319C13.129 6.29665 12.4179 6.26712 11.6986 6.26712ZM9.96171 21.9079C9.43817 21.8158 8.92868 21.6824 8.4364 21.5119C7.2439 20.4845 6.29698 18.956 5.67884 17.1457C6.6686 17.4025 7.73449 17.5956 8.84614 17.7183C9.10873 19.4395 9.49081 20.8934 9.96171 21.9079ZM8.7454 16.9995C7.57043 16.8618 6.45364 16.6429 5.4334 16.3522C5.0944 15.1276 4.89898 13.7977 4.87043 12.4223H8.44854C8.46176 14.0424 8.56559 15.5958 8.7454 16.9995ZM1.71654 12.4223H4.16679C4.19243 13.6999 4.3572 14.9426 4.64435 16.1065C3.68881 15.782 2.8384 15.3896 2.12984 14.9383C1.88932 14.1369 1.74687 13.2937 1.71654 12.4223ZM2.49837 15.9606C3.20112 16.3271 3.99879 16.6472 4.86804 16.9154C5.31626 18.3812 5.96548 19.6951 6.77829 20.7608C4.87531 19.6792 3.36012 17.991 2.49837 15.9606Z" fill="url(#paint6_linear_35_241)"/>
</g>
<defs>
<linearGradient id="paint0_linear_35_241" x1="16.3249" y1="14.6614" x2="22.511" y2="16.8317" gradientUnits="userSpaceOnUse">
<stop stop-color="#3286B7" stop-opacity="0.7"/>
<stop offset="1" stop-color="#44C2AD"/>
</linearGradient>
<linearGradient id="paint1_linear_35_241" x1="13.8526" y1="14.5607" x2="26.2693" y2="17.6888" gradientUnits="userSpaceOnUse">
<stop stop-color="#3286B7" stop-opacity="0.7"/>
<stop offset="1" stop-color="#44C2AD"/>
</linearGradient>
<linearGradient id="paint2_linear_35_241" x1="1.80841" y1="2.80365" x2="6.94131" y2="4.60452" gradientUnits="userSpaceOnUse">
<stop stop-color="#3286B7" stop-opacity="0.7"/>
<stop offset="1" stop-color="#44C2AD"/>
</linearGradient>
<linearGradient id="paint3_linear_35_241" x1="-0.171202" y1="2.72321" x2="9.95417" y2="5.28766" gradientUnits="userSpaceOnUse">
<stop stop-color="#3286B7" stop-opacity="0.7"/>
<stop offset="1" stop-color="#44C2AD"/>
</linearGradient>
<linearGradient id="paint4_linear_35_241" x1="17.9165" y1="2.43606" x2="21.8056" y2="3.84869" gradientUnits="userSpaceOnUse">
<stop stop-color="#3286B7" stop-opacity="0.7"/>
<stop offset="1" stop-color="#44C2AD"/>
</linearGradient>
<linearGradient id="paint5_linear_35_241" x1="16.2765" y1="1.56651" x2="24.1215" y2="4.38367" gradientUnits="userSpaceOnUse">
<stop stop-color="#3286B7" stop-opacity="0.7"/>
<stop offset="1" stop-color="#44C2AD"/>
</linearGradient>
<linearGradient id="paint6_linear_35_241" x1="-0.467683" y1="6.9537" x2="26.9016" y2="16.5315" gradientUnits="userSpaceOnUse">
<stop stop-color="#3286B7" stop-opacity="0.7"/>
<stop offset="1" stop-color="#44C2AD"/>
</linearGradient>
<clipPath id="clip0_35_241">
<rect width="24" height="24" fill="white"/>
</clipPath>
</defs>
</svg>
