<svg width="28" height="28" viewBox="0 0 28 28" fill="none" xmlns="http://www.w3.org/2000/svg">
<path d="M14.3655 15.2811C14.3137 15.2699 14.2605 15.2679 14.2081 15.2757C13.6822 15.2145 13.2855 14.7696 13.2846 14.2403C13.2846 13.9867 13.0789 13.781 12.8253 13.781C12.5717 13.781 12.366 13.9867 12.366 14.2403C12.3674 15.1241 12.9585 15.8983 13.8107 16.1322V16.5914C13.8107 16.8451 14.0163 17.0507 14.27 17.0507C14.5236 17.0507 14.7292 16.8451 14.7292 16.5914V16.16C15.7128 15.9541 16.3814 15.038 16.278 14.0385C16.1744 13.039 15.3323 12.2794 14.3274 12.2792C13.7515 12.2792 13.2846 11.8123 13.2846 11.2364C13.2846 10.6605 13.7515 10.1936 14.3274 10.1936C14.9033 10.1936 15.3702 10.6605 15.3702 11.2364C15.3702 11.49 15.5758 11.6957 15.8295 11.6957C16.0831 11.6957 16.2887 11.49 16.2887 11.2364C16.2874 10.3084 15.6373 9.50802 14.7292 9.31651V8.89849C14.7292 8.64485 14.5236 8.43921 14.27 8.43921C14.0163 8.43921 13.8107 8.64485 13.8107 8.89849V9.34454C12.863 9.60333 12.253 10.5235 12.3835 11.4972C12.514 12.4709 13.3449 13.1977 14.3274 13.1975C14.8956 13.1975 15.3592 13.6525 15.3695 14.2206C15.38 14.7886 14.9333 15.2605 14.3655 15.2811Z" fill="url(#paint0_linear_35_228)"/>
<path d="M7.66748 12.7738C7.66748 16.4521 10.6492 19.4338 14.3275 19.4338C18.0058 19.4338 20.9875 16.4521 20.9875 12.7738C20.9875 9.09551 18.0058 6.11377 14.3275 6.11377C10.651 6.11781 7.67174 9.0973 7.66748 12.7738ZM14.3275 7.03233C17.4985 7.03233 20.069 9.60278 20.069 12.7738C20.069 15.9448 17.4985 18.5152 14.3275 18.5152C11.1565 18.5152 8.58604 15.9448 8.58604 12.7738C8.58963 9.60435 11.1581 7.03592 14.3275 7.03233Z" fill="url(#paint1_linear_35_228)"/>
<path d="M23.2516 20.566L19.6539 22.2659C19.1571 21.3419 18.2043 20.7539 17.1556 20.7243L13.8344 20.633C13.3085 20.618 12.7925 20.4848 12.3249 20.2433L11.9869 20.0681C10.2565 19.1662 8.19404 19.1684 6.46546 20.074L6.48654 19.3083C6.49349 19.0547 6.29368 18.8435 6.04004 18.8365L2.39809 18.7363C2.14445 18.7293 1.93342 18.9291 1.92647 19.1828L1.70647 27.1749C1.69952 27.4285 1.89934 27.6398 2.15297 27.6467L5.79493 27.747H5.80749C6.05641 27.747 6.26004 27.5489 6.26677 27.3002L6.27731 26.9179L7.22345 26.4113C7.59482 26.2115 8.02899 26.1639 8.43467 26.2787L14.0846 27.8645C14.0945 27.8674 14.1044 27.8696 14.1145 27.8719C14.5228 27.9573 14.9391 28.0001 15.3562 27.9999C16.2398 28.0004 17.113 27.81 17.9161 27.4413C17.9358 27.4323 17.9549 27.4218 17.973 27.4099L26.165 22.1111C26.369 21.979 26.435 21.711 26.3155 21.4993C25.7073 20.4202 24.3583 20.0091 23.2516 20.566ZM2.63737 26.7412L2.83203 19.6672L5.55564 19.7421L5.36099 26.8163L2.63737 26.7412ZM17.5023 26.621C16.5046 27.0713 15.3903 27.1955 14.3179 26.9764L8.68315 25.3947C8.04895 25.2155 7.37012 25.2898 6.78996 25.6017L6.30646 25.8607L6.43586 21.1574C7.96799 20.1383 9.93294 20.0336 11.5646 20.8838L11.9026 21.0589C12.4933 21.3639 13.1448 21.5321 13.8092 21.5514L17.1307 21.6426C18.0636 21.6696 18.8559 22.3338 19.0452 23.2479L14.0979 23.1113C13.8442 23.1044 13.6332 23.3044 13.626 23.5578C13.6191 23.8114 13.8191 24.0227 14.0725 24.0297L19.5323 24.1799H19.5451C19.7938 24.1797 19.9972 23.9817 20.0039 23.7332C20.0095 23.5336 19.9947 23.3338 19.9595 23.1373L23.6497 21.3937C23.6533 21.3922 23.6569 21.3904 23.6605 21.3886C24.1839 21.1237 24.8167 21.2123 25.2473 21.6108L17.5023 26.621Z" fill="url(#paint2_linear_35_228)"/>
<path d="M14.7867 4.82245V0.459281C14.7867 0.205645 14.5811 0 14.3274 0C14.0738 0 13.8682 0.205645 13.8682 0.459281V4.82245C13.8682 5.07609 14.0738 5.28173 14.3274 5.28173C14.5811 5.28173 14.7867 5.07609 14.7867 4.82245Z" fill="url(#paint3_linear_35_228)"/>
<path d="M18.2313 4.82243V2.75567C18.2313 2.50203 18.0257 2.29639 17.772 2.29639C17.5184 2.29639 17.3127 2.50203 17.3127 2.75567V4.82243C17.3127 5.07607 17.5184 5.28171 17.772 5.28171C18.0257 5.28171 18.2313 5.07607 18.2313 4.82243Z" fill="url(#paint4_linear_35_228)"/>
<path d="M11.3421 4.82243V2.75567C11.3421 2.50203 11.1365 2.29639 10.8829 2.29639C10.6292 2.29639 10.4236 2.50203 10.4236 2.75567V4.82243C10.4236 5.07607 10.6292 5.28171 10.8829 5.28171C11.1365 5.28171 11.3421 5.07607 11.3421 4.82243Z" fill="url(#paint5_linear_35_228)"/>
<defs>
<linearGradient id="paint0_linear_35_228" x1="12.0949" y1="10.6846" x2="17.6043" y2="11.5651" gradientUnits="userSpaceOnUse">
<stop stop-color="#3286B7" stop-opacity="0.7"/>
<stop offset="1" stop-color="#44C2AD"/>
</linearGradient>
<linearGradient id="paint1_linear_35_228" x1="6.7471" y1="9.58687" x2="23.8294" y2="15.5805" gradientUnits="userSpaceOnUse">
<stop stop-color="#3286B7" stop-opacity="0.7"/>
<stop offset="1" stop-color="#44C2AD"/>
</linearGradient>
<linearGradient id="paint2_linear_35_228" x1="0.00176599" y1="21.1516" x2="18.9723" y2="38.8761" gradientUnits="userSpaceOnUse">
<stop stop-color="#3286B7" stop-opacity="0.7"/>
<stop offset="1" stop-color="#44C2AD"/>
</linearGradient>
<linearGradient id="paint3_linear_35_228" x1="13.8047" y1="1.37717" x2="15.1228" y2="1.4576" gradientUnits="userSpaceOnUse">
<stop stop-color="#3286B7" stop-opacity="0.7"/>
<stop offset="1" stop-color="#44C2AD"/>
</linearGradient>
<linearGradient id="paint4_linear_35_228" x1="17.2493" y1="3.07479" x2="18.5571" y2="3.21597" gradientUnits="userSpaceOnUse">
<stop stop-color="#3286B7" stop-opacity="0.7"/>
<stop offset="1" stop-color="#44C2AD"/>
</linearGradient>
<linearGradient id="paint5_linear_35_228" x1="10.3601" y1="3.07479" x2="11.6679" y2="3.21597" gradientUnits="userSpaceOnUse">
<stop stop-color="#3286B7" stop-opacity="0.7"/>
<stop offset="1" stop-color="#44C2AD"/>
</linearGradient>
</defs>
</svg>
