<svg width="24" height="24" viewBox="0 0 24 24" fill="none" xmlns="http://www.w3.org/2000/svg">
<path d="M22.875 11.25C22.875 5.25375 17.9963 0.375 12 0.375C6.00375 0.375 1.125 5.25375 1.125 11.25C1.125 12.6217 1.37775 13.9567 1.87425 15.2213V16.5C1.87425 17.1203 2.379 17.625 2.99925 17.625C3.13125 17.625 3.2565 17.598 3.37425 17.556V21C3.37425 21.6203 3.879 22.125 4.49925 22.125C5.1195 22.125 5.62425 21.6203 5.62425 21V19.5C5.62425 19.293 5.79225 19.125 5.99925 19.125C6.20625 19.125 6.37425 19.293 6.37425 19.5V21.75C6.37425 22.3703 6.879 22.875 7.49925 22.875C8.1195 22.875 8.62425 22.3703 8.62425 21.75V20.25C8.62425 20.043 8.79225 19.875 8.99925 19.875C9.20625 19.875 9.37425 20.043 9.37425 20.25H9.375V22.5C9.375 23.1203 9.87975 23.625 10.5 23.625C11.1202 23.625 11.625 23.1203 11.625 22.5V21C11.625 20.793 11.793 20.625 12 20.625C12.207 20.625 12.375 20.793 12.375 21V22.5C12.375 23.1203 12.8798 23.625 13.5 23.625C14.1202 23.625 14.625 23.1203 14.625 22.5V20.25C14.625 20.043 14.793 19.875 15 19.875C15.207 19.875 15.375 20.043 15.375 20.25V21.75C15.375 22.3703 15.8798 22.875 16.5 22.875C17.1202 22.875 17.625 22.3703 17.625 21.75V19.5C17.625 19.293 17.793 19.125 18 19.125C18.207 19.125 18.375 19.293 18.375 19.5V21C18.375 21.6203 18.8797 22.125 19.5 22.125C20.1203 22.125 20.625 21.6203 20.625 21V17.556C20.7428 17.598 20.868 17.625 21 17.625C21.6203 17.625 22.125 17.1203 22.125 16.5V15.2228C22.6219 13.9571 22.875 12.6217 22.875 11.25ZM21.9645 13.0451C21.6334 12.2145 20.8226 11.625 19.875 11.625H19.6717C19.95 11.3149 20.1431 10.9283 20.2155 10.5H22.0942C22.1126 10.7479 22.125 10.9976 22.125 11.25C22.125 11.8575 22.0699 12.4567 21.9645 13.0451ZM4.5 10.125C4.5 9.29775 5.17275 8.625 6 8.625C6.54675 8.625 7.04812 8.9265 7.31025 9.3945C6.96263 9.7905 6.75 10.3076 6.75 10.875C6.75 11.0501 6.77212 11.2196 6.81 11.3835C6.56962 11.5388 6.28988 11.625 6 11.625C5.17275 11.625 4.5 10.9523 4.5 10.125ZM7.5 10.875C7.5 10.0477 8.17275 9.375 9 9.375C9.54675 9.375 10.0481 9.6765 10.3099 10.1445C9.96262 10.5405 9.75 11.058 9.75 11.625C9.75 11.8001 9.77213 11.97 9.81 12.1339C9.56962 12.2884 9.28988 12.375 9 12.375C8.17275 12.375 7.5 11.7023 7.5 10.875ZM10.5 11.625C10.5 10.7977 11.1727 10.125 12 10.125C12.8273 10.125 13.5 10.7977 13.5 11.625C13.5 12.4523 12.8273 13.125 12 13.125C11.1727 13.125 10.5 12.4523 10.5 11.625ZM13.6894 10.1437C13.9515 9.67612 14.4525 9.375 14.9993 9.375C15.8265 9.375 16.4993 10.0477 16.4993 10.875C16.4993 11.7023 15.8265 12.375 14.9993 12.375C14.7098 12.375 14.43 12.2888 14.1896 12.1343C14.2279 11.9704 14.25 11.8005 14.25 11.625C14.25 11.0576 14.0374 10.5401 13.6894 10.1437ZM22.0133 9.75H20.2155C20.0363 8.68762 19.1123 7.875 17.9993 7.875C17.739 7.875 17.4874 7.9245 17.25 8.00925V7.5C17.25 7.293 17.418 7.125 17.625 7.125C18.2453 7.125 18.75 6.62025 18.75 6V5.625C18.75 5.418 18.918 5.25 19.125 5.25H20.1495C21.1084 6.549 21.7646 8.0835 22.0133 9.75ZM16.689 9.3945C16.9511 8.9265 17.4529 8.625 17.9993 8.625C18.8265 8.625 19.4993 9.29775 19.4993 10.125C19.4993 10.9523 18.8265 11.625 17.9993 11.625C17.7094 11.625 17.4296 11.5384 17.1893 11.3839C17.2271 11.22 17.2493 11.0505 17.2493 10.875C17.2493 10.3076 17.0366 9.7905 16.689 9.3945ZM19.5386 4.5H19.125C18.5047 4.5 18 5.00475 18 5.625V6C18 6.207 17.832 6.375 17.625 6.375C17.0048 6.375 16.5 6.87975 16.5 7.5V8.454C16.3489 8.589 16.218 8.74575 16.107 8.91862C15.7796 8.73263 15.402 8.625 14.9993 8.625C14.2245 8.625 13.5154 9.03225 13.1074 9.66862C12.8842 9.54187 12.6371 9.453 12.375 9.40875V9.20925C12.375 9.14738 12.4016 9.08287 12.4447 9.04087C12.4733 9.0135 12.504 8.99963 12.5355 8.99963H12.5381C12.7931 9.00375 13.0342 8.91225 13.2169 8.73413C13.3991 8.556 13.5 8.31787 13.5 8.0625C13.5 7.95937 13.5844 7.875 13.6875 7.875H14.625C15.2452 7.875 15.75 7.37025 15.75 6.75V1.848C17.2106 2.43263 18.5047 3.3465 19.5386 4.5ZM15 1.57875V6.75C15 6.957 14.832 7.125 14.625 7.125H13.6875C13.1704 7.125 12.75 7.54537 12.75 8.0625C12.75 8.1315 12.7144 8.1765 12.6934 8.19675C12.6727 8.217 12.6289 8.25 12.5625 8.25C12.5606 8.25 12.5588 8.24963 12.5573 8.24963C12.3221 8.25338 12.0956 8.33437 11.9209 8.50425C11.733 8.68762 11.625 8.94487 11.625 9.20963V9.40912C11.3625 9.45337 11.1154 9.54225 10.8923 9.66937C10.4843 9.03225 9.77475 8.625 9 8.625C8.59725 8.625 8.21962 8.73263 7.89225 8.919C7.725 8.658 7.51013 8.43412 7.25663 8.26312C7.29187 8.25712 7.32713 8.25 7.36312 8.25H10.125C10.7452 8.25 11.25 7.74525 11.25 7.125C11.25 6.5175 10.7558 6.01275 10.1479 6C9.95475 5.99625 9.75 5.874 9.75 5.655V4.49137C9.75 4.374 9.69525 4.26338 9.60113 4.19212C9.219 3.90375 9 3.46913 9 3V1.57875C9.94837 1.284 10.956 1.125 12 1.125C13.044 1.125 14.0516 1.284 15 1.57875ZM4.1415 4.875H5.8125C6.12262 4.875 6.375 5.12738 6.375 5.4375C6.375 5.74762 6.12262 6 5.8125 6H5.0625C4.54538 6 4.125 6.42037 4.125 6.9375C4.125 7.04063 4.04063 7.125 3.9375 7.125H2.757C3.12075 6.31313 3.58687 5.55713 4.1415 4.875ZM2.4555 7.875H3.9375C4.45462 7.875 4.875 7.45463 4.875 6.9375C4.875 6.83437 4.95937 6.75 5.0625 6.75H5.8125C6.53625 6.75 7.125 6.16125 7.125 5.4375C7.125 4.71375 6.53625 4.125 5.8125 4.125H4.81425C5.78363 3.14737 6.95138 2.36775 8.25 1.848V3C8.25 3.64237 8.52112 4.2405 9 4.66838V5.655C9 6.2565 9.49763 6.73763 10.1329 6.75C10.3354 6.75413 10.5 6.9225 10.5 7.125C10.5 7.332 10.332 7.5 10.125 7.5H7.36312C6.98925 7.5 6.63225 7.65337 6.37687 7.90912C6.25312 7.88812 6.12787 7.875 6 7.875C4.75912 7.875 3.75 8.88412 3.75 10.125C3.75 10.7017 3.96975 11.2264 4.3275 11.625H4.12425C3.177 11.625 2.36663 12.2137 2.03513 13.044C1.93012 12.456 1.875 11.8571 1.875 11.25C1.875 10.0669 2.08087 8.93137 2.4555 7.875ZM5.99925 18.375C5.379 18.375 4.87425 18.8797 4.87425 19.5V21C4.87425 21.207 4.70625 21.375 4.49925 21.375C4.29225 21.375 4.12425 21.207 4.12425 21V16.5V13.875H3.37425V16.5C3.37425 16.707 3.20625 16.875 2.99925 16.875C2.79225 16.875 2.62425 16.707 2.62425 16.5V13.875C2.62425 13.0477 3.297 12.375 4.12425 12.375H5.99925H6C6.39075 12.375 6.76837 12.2692 7.10325 12.0802C7.17 12.1849 7.245 12.2831 7.3275 12.375H7.12425C5.88337 12.375 4.87425 13.3841 4.87425 14.625V17.25C4.87425 17.8703 5.379 18.375 5.99925 18.375C6.13125 18.375 6.2565 18.348 6.37425 18.306V18.4444C6.2565 18.402 6.13125 18.375 5.99925 18.375ZM8.99925 19.125C8.379 19.125 7.87425 19.6297 7.87425 20.25V21.75C7.87425 21.957 7.70625 22.125 7.49925 22.125C7.29225 22.125 7.12425 21.957 7.12425 21.75V17.25V14.625H6.37425V17.25C6.37425 17.457 6.20625 17.625 5.99925 17.625C5.79225 17.625 5.62425 17.457 5.62425 17.25V14.625C5.62425 13.7977 6.297 13.125 7.12425 13.125H8.99925H9C9.39038 13.125 9.76837 13.0192 10.1032 12.8302C10.17 12.9349 10.245 13.0331 10.3275 13.125H10.125C8.88412 13.125 7.875 14.1341 7.875 15.375V18C7.875 18.6203 8.37975 19.125 9 19.125C9.132 19.125 9.25725 19.098 9.375 19.056V19.1944C9.25688 19.152 9.13162 19.125 8.99925 19.125ZM13.875 22.5C13.875 22.707 13.707 22.875 13.5 22.875C13.293 22.875 13.125 22.707 13.125 22.5V21C13.125 20.3797 12.6202 19.875 12 19.875C11.3798 19.875 10.875 20.3797 10.875 21V22.5C10.875 22.707 10.707 22.875 10.5 22.875C10.293 22.875 10.125 22.707 10.125 22.5V18V15.375H9.375V18C9.375 18.207 9.207 18.375 9 18.375C8.793 18.375 8.625 18.207 8.625 18V15.375C8.625 14.5477 9.29775 13.875 10.125 13.875H13.875C14.7023 13.875 15.375 14.5477 15.375 15.375V18C15.375 18.207 15.207 18.375 15 18.375C14.793 18.375 14.625 18.207 14.625 18V15.375H13.875V18V22.5ZM16.875 21.75C16.875 21.957 16.707 22.125 16.5 22.125C16.293 22.125 16.125 21.957 16.125 21.75V20.25C16.125 19.6297 15.6202 19.125 15 19.125C14.868 19.125 14.7428 19.152 14.625 19.194V19.0556C14.7428 19.098 14.868 19.125 15 19.125C15.6202 19.125 16.125 18.6203 16.125 18V15.375C16.125 14.1341 15.1159 13.125 13.875 13.125H13.6725C13.755 13.0331 13.83 12.9353 13.8967 12.8306C14.2312 13.0192 14.6093 13.125 14.9993 13.125H15H16.875C17.7022 13.125 18.375 13.7977 18.375 14.625V17.25C18.375 17.457 18.207 17.625 18 17.625C17.793 17.625 17.625 17.457 17.625 17.25V14.625H16.875V17.25V21.75ZM21.375 16.5C21.375 16.707 21.207 16.875 21 16.875C20.793 16.875 20.625 16.707 20.625 16.5V13.875H19.875V16.5V21C19.875 21.207 19.707 21.375 19.5 21.375C19.293 21.375 19.125 21.207 19.125 21V19.5C19.125 18.8797 18.6203 18.375 18 18.375C17.868 18.375 17.7428 18.402 17.625 18.444V18.3056C17.7428 18.348 17.868 18.375 18 18.375C18.6203 18.375 19.125 17.8703 19.125 17.25V14.625C19.125 13.3841 18.1159 12.375 16.875 12.375H16.6718C16.7543 12.2831 16.8296 12.1849 16.896 12.0802C17.2309 12.2692 17.6089 12.375 17.9993 12.375H18H19.875C20.7022 12.375 21.375 13.0477 21.375 13.875V16.5Z" fill="url(#paint0_linear_35_238)"/>
<defs>
<linearGradient id="paint0_linear_35_238" x1="-0.377864" y1="6.43726" x2="27.9025" y2="15.7197" gradientUnits="userSpaceOnUse">
<stop stop-color="#3286B7" stop-opacity="0.7"/>
<stop offset="1" stop-color="#44C2AD"/>
</linearGradient>
</defs>
</svg>
