<svg width="24" height="24" viewBox="0 0 24 24" fill="none" xmlns="http://www.w3.org/2000/svg">
<g clip-path="url(#clip0_35_251)">
<path d="M14.7146 9.77058L11.1086 13.1765L9.37798 11.3961C9.18612 11.1986 8.8702 11.1941 8.67288 11.3859C8.47535 11.578 8.47086 11.8937 8.66272 12.0912L10.7384 14.222C10.9312 14.416 11.2428 14.4226 11.4437 14.2368L15.4099 10.4958C15.5063 10.405 15.5625 10.2795 15.5662 10.1473C15.57 10.015 15.5209 9.88663 15.4299 9.79051C15.2368 9.58986 14.9186 9.58107 14.7146 9.77058Z" fill="url(#paint0_linear_35_251)"/>
<path d="M12.0387 4.52905C7.91745 4.52905 4.56641 7.8801 4.56641 12.0013C4.56641 16.1227 7.91745 19.4738 12.0387 19.4738C16.1601 19.4738 19.5111 16.1227 19.5111 12.0013C19.5111 7.8801 16.1601 4.52905 12.0387 4.52905ZM12.0387 18.4735C8.46763 18.4735 5.56672 15.5675 5.56672 12.0013C5.56672 8.43516 8.46763 5.52937 12.0387 5.52937C15.6132 5.52937 18.5108 8.42695 18.5108 12.0013C18.5108 15.5757 15.6132 18.4735 12.0387 18.4735Z" fill="url(#paint1_linear_35_251)"/>
<path d="M22.322 9.2504L22.487 6.28444C22.4986 6.08535 22.3903 5.89838 22.212 5.80929L19.5711 4.47391L18.2357 1.83304C18.1449 1.65623 17.9591 1.54858 17.7606 1.55796L14.7895 1.71816L12.3137 0.0824965C12.1469 -0.0274988 11.9306 -0.0274988 11.7636 0.0824965L9.2878 1.71816L6.32203 1.55307C6.12275 1.54135 5.93597 1.64959 5.84688 1.82816L4.51131 4.46902L1.87064 5.8044C1.69363 5.89506 1.58618 6.08086 1.59555 6.27955L1.76045 9.24552L0.124977 11.7213C0.0149816 11.8881 0.0149816 12.1044 0.124977 12.2715L1.75556 14.7521L1.59047 17.7181C1.57895 17.9172 1.68699 18.1041 1.86556 18.1932L4.50642 19.5286L5.8418 22.1695C5.93246 22.3465 6.11826 22.4539 6.31695 22.4446L9.28292 22.2795L11.7587 23.9149C11.9246 24.0285 12.143 24.0285 12.3089 23.9149L14.7846 22.2795L17.7506 22.4446C17.9497 22.4561 18.1365 22.3479 18.2257 22.1695L19.5611 19.5286L22.202 18.1932C22.3788 18.1024 22.4865 17.9168 22.4771 17.7181L22.312 14.7521L23.9475 12.2763C24.0575 12.1095 24.0575 11.893 23.9475 11.7262L22.322 9.2504ZM21.3916 14.342C21.3306 14.4315 21.3023 14.5392 21.3117 14.6472L21.4666 17.453L18.9709 18.7133C18.8758 18.761 18.7986 18.8384 18.7509 18.9335L17.4904 21.4292L14.6846 21.2743C14.5771 21.2704 14.4711 21.2981 14.3794 21.3542L12.0387 22.8998L9.69809 21.3542C9.61681 21.2993 9.52108 21.2696 9.423 21.2692H9.39799L6.59204 21.4243L5.33168 18.9284C5.28401 18.8333 5.20684 18.7561 5.1115 18.7084L2.61071 17.453L2.76584 14.6472C2.76975 14.5398 2.74181 14.4337 2.68574 14.342L1.14033 12.0013L2.68574 9.66049C2.74689 9.57121 2.77522 9.46336 2.76584 9.35551L2.61071 6.54956L5.10661 5.2892C5.20176 5.24153 5.27893 5.16436 5.3266 5.06921L6.58696 2.57331L9.39291 2.72844C9.50017 2.73215 9.60626 2.70441 9.69809 2.64834L12.0387 1.10293L14.3794 2.64834C14.4689 2.70949 14.5768 2.73782 14.6846 2.72844L17.4904 2.57331L18.7509 5.06921C18.7986 5.16436 18.8758 5.24153 18.9709 5.2892L21.4666 6.54956L21.3117 9.35551C21.3078 9.46277 21.3357 9.56886 21.3916 9.66049L22.9372 12.0013L21.3916 14.342Z" fill="url(#paint2_linear_35_251)"/>
</g>
<defs>
<linearGradient id="paint0_linear_35_251" x1="8.03496" y1="10.8694" x2="16.0109" y2="15.0304" gradientUnits="userSpaceOnUse">
<stop stop-color="#3286B7" stop-opacity="0.7"/>
<stop offset="1" stop-color="#44C2AD"/>
</linearGradient>
<linearGradient id="paint1_linear_35_251" x1="3.53377" y1="8.42577" x2="22.6996" y2="15.1504" gradientUnits="userSpaceOnUse">
<stop stop-color="#3286B7" stop-opacity="0.7"/>
<stop offset="1" stop-color="#44C2AD"/>
</linearGradient>
<linearGradient id="paint2_linear_35_251" x1="-1.61499" y1="6.25783" x2="29.1513" y2="17.047" gradientUnits="userSpaceOnUse">
<stop stop-color="#3286B7" stop-opacity="0.7"/>
<stop offset="1" stop-color="#44C2AD"/>
</linearGradient>
<clipPath id="clip0_35_251">
<rect width="24" height="24" fill="white"/>
</clipPath>
</defs>
</svg>
